<svg width="22" height="23" viewBox="0 0 22 23" fill="none" xmlns="http://www.w3.org/2000/svg">
<path d="M12.6831 9.58079L13.3138 9.98663L12.6831 9.58079ZM8.25 8.5C8.25 8.91421 8.58579 9.25 9 9.25C9.41421 9.25 9.75 8.91421 9.75 8.5H8.25ZM10.25 13C10.25 13.4142 10.5858 13.75 11 13.75C11.4142 13.75 11.75 13.4142 11.75 13H10.25ZM11.75 15.5C11.75 15.0858 11.4142 14.75 11 14.75C10.5858 14.75 10.25 15.0858 10.25 15.5H11.75ZM10.25 16.5C10.25 16.9142 10.5858 17.25 11 17.25C11.4142 17.25 11.75 16.9142 11.75 16.5H10.25ZM20.25 11.5C20.25 16.6086 16.1086 20.75 11 20.75V22.25C16.9371 22.25 21.75 17.4371 21.75 11.5H20.25ZM11 20.75C5.89137 20.75 1.75 16.6086 1.75 11.5H0.25C0.25 17.4371 5.06294 22.25 11 22.25V20.75ZM1.75 11.5C1.75 6.39137 5.89137 2.25 11 2.25V0.75C5.06294 0.75 0.25 5.56294 0.25 11.5H1.75ZM11 2.25C16.1086 2.25 20.25 6.39137 20.25 11.5H21.75C21.75 5.56294 16.9371 0.75 11 0.75V2.25ZM12.25 8.5C12.25 8.74996 12.1774 8.98068 12.0524 9.17495L13.3138 9.98663C13.5899 9.55757 13.75 9.04634 13.75 8.5H12.25ZM9.75 8.5C9.75 7.80964 10.3096 7.25 11 7.25V5.75C9.48122 5.75 8.25 6.98122 8.25 8.5H9.75ZM11 7.25C11.6904 7.25 12.25 7.80964 12.25 8.5H13.75C13.75 6.98122 12.5188 5.75 11 5.75V7.25ZM10.25 12.5V13H11.75V12.5H10.25ZM12.0524 9.17495C11.9265 9.37065 11.7688 9.57313 11.5836 9.80329C11.4063 10.0237 11.1979 10.2764 11.011 10.5333C10.6424 11.0398 10.25 11.7007 10.25 12.5H11.75C11.75 12.1947 11.9003 11.8605 12.2239 11.4158C12.383 11.197 12.558 10.9851 12.7523 10.7436C12.9387 10.5119 13.1409 10.2554 13.3138 9.98663L12.0524 9.17495ZM10.25 15.5V16.5H11.75V15.5H10.25Z" fill="#D6D6D6"/>
</svg>
