<svg width="24" height="25" viewBox="0 0 24 25" fill="none" xmlns="http://www.w3.org/2000/svg">
<path d="M13.6831 10.5808L14.3138 10.9866L13.6831 10.5808ZM9.25 9.5C9.25 9.91421 9.58579 10.25 10 10.25C10.4142 10.25 10.75 9.91421 10.75 9.5H9.25ZM11.25 14C11.25 14.4142 11.5858 14.75 12 14.75C12.4142 14.75 12.75 14.4142 12.75 14H11.25ZM12.75 16.5C12.75 16.0858 12.4142 15.75 12 15.75C11.5858 15.75 11.25 16.0858 11.25 16.5H12.75ZM11.25 17.5C11.25 17.9142 11.5858 18.25 12 18.25C12.4142 18.25 12.75 17.9142 12.75 17.5H11.25ZM21.25 12.5C21.25 17.6086 17.1086 21.75 12 21.75V23.25C17.9371 23.25 22.75 18.4371 22.75 12.5H21.25ZM12 21.75C6.89137 21.75 2.75 17.6086 2.75 12.5H1.25C1.25 18.4371 6.06294 23.25 12 23.25V21.75ZM2.75 12.5C2.75 7.39137 6.89137 3.25 12 3.25V1.75C6.06294 1.75 1.25 6.56294 1.25 12.5H2.75ZM12 3.25C17.1086 3.25 21.25 7.39137 21.25 12.5H22.75C22.75 6.56294 17.9371 1.75 12 1.75V3.25ZM13.25 9.5C13.25 9.74996 13.1774 9.98068 13.0524 10.1749L14.3138 10.9866C14.5899 10.5576 14.75 10.0463 14.75 9.5H13.25ZM10.75 9.5C10.75 8.80964 11.3096 8.25 12 8.25V6.75C10.4812 6.75 9.25 7.98122 9.25 9.5H10.75ZM12 8.25C12.6904 8.25 13.25 8.80964 13.25 9.5H14.75C14.75 7.98122 13.5188 6.75 12 6.75V8.25ZM11.25 13.5V14H12.75V13.5H11.25ZM13.0524 10.1749C12.9265 10.3706 12.7688 10.5731 12.5836 10.8033C12.4063 11.0237 12.1979 11.2764 12.011 11.5333C11.6424 12.0398 11.25 12.7007 11.25 13.5H12.75C12.75 13.1947 12.9003 12.8605 13.2239 12.4158C13.383 12.197 13.558 11.9851 13.7523 11.7436C13.9387 11.5119 14.1409 11.2554 14.3138 10.9866L13.0524 10.1749ZM11.25 16.5V17.5H12.75V16.5H11.25Z" fill="#D6D6D6"/>
</svg>
