<svg width="24" height="25" viewBox="0 0 24 25" fill="none" xmlns="http://www.w3.org/2000/svg">
<path d="M6.08577 24.4151C4.65848 24.3502 3.88314 24.1127 3.36743 23.9115C2.6841 23.6455 2.19693 23.3288 1.68407 22.8166C1.17122 22.3045 0.853806 21.8173 0.589176 21.134C0.388029 20.6183 0.150504 19.8429 0.0855946 18.4157C0.0142658 16.8728 0 16.4099 0 12.5011C0 8.59225 0.0156923 8.13004 0.0848813 6.58577C0.14979 5.15848 0.388742 4.38457 0.588463 3.86743C0.854519 3.1841 1.17193 2.69693 1.68336 2.18336C2.1955 1.67122 2.68268 1.35309 3.36672 1.08846C3.88243 0.887315 4.65777 0.64979 6.08506 0.584881C7.62861 0.514266 8.09225 0.5 11.9996 0.5C15.9085 0.5 16.3707 0.515692 17.9149 0.584881C19.3422 0.64979 20.1161 0.888742 20.6333 1.08846C21.3166 1.35309 21.8038 1.67122 22.3166 2.18336C22.8295 2.6955 23.1455 3.18339 23.4115 3.86672C23.6127 4.38243 23.8502 5.15777 23.9151 6.58506C23.9857 8.12933 24 8.59154 24 12.5004C24 16.4077 23.9857 16.8714 23.9151 18.4157C23.8502 19.8429 23.6113 20.6183 23.4115 21.134C23.1455 21.8173 22.8288 22.3045 22.3166 22.8166C21.8045 23.3288 21.3166 23.6455 20.6333 23.9115C20.1176 24.1127 19.3422 24.3502 17.9149 24.4151C16.3721 24.4857 15.9085 24.5 11.9996 24.5C8.09225 24.5 7.62862 24.4864 6.08577 24.4151Z" fill="url(#paint0_radial_1203_1496)"/>
<path d="M9.27709 12.415C9.27709 10.9579 10.4579 9.77645 11.915 9.77645C13.3721 9.77645 14.5535 10.9579 14.5535 12.415C14.5535 13.8721 13.3721 15.0535 11.915 15.0535C10.4579 15.0535 9.27709 13.8721 9.27709 12.415ZM7.85074 12.415C7.85074 14.6597 9.67031 16.4793 11.915 16.4793C14.1597 16.4793 15.9793 14.6597 15.9793 12.415C15.9793 10.1703 14.1597 8.35074 11.915 8.35074C9.67031 8.35074 7.85081 10.1702 7.85081 12.415M15.1904 8.18959C15.1903 8.37745 15.246 8.5611 15.3503 8.71734C15.4546 8.87357 15.6029 8.99537 15.7764 9.06733C15.9499 9.13929 16.1409 9.15817 16.3251 9.1216C16.5094 9.08502 16.6787 8.99463 16.8116 8.86185C16.9444 8.72907 17.035 8.55987 17.0717 8.37564C17.1084 8.19141 17.0897 8.00043 17.0179 7.82685C16.946 7.65327 16.8244 7.50488 16.6682 7.40045C16.5121 7.29603 16.3285 7.24025 16.1406 7.24017H16.1402C15.8884 7.24029 15.647 7.34034 15.4689 7.51836C15.2908 7.69637 15.1906 7.93779 15.1904 8.18959ZM8.71734 18.8577C7.94566 18.8225 7.52623 18.694 7.24749 18.5854C6.87796 18.4415 6.61429 18.2702 6.33708 17.9934C6.05986 17.7165 5.88827 17.4531 5.74504 17.0836C5.63638 16.805 5.50784 16.3854 5.47276 15.6137C5.43439 14.7794 5.42673 14.5288 5.42673 12.4151C5.42673 10.3014 5.43502 10.0515 5.47276 9.21652C5.5079 8.44484 5.63739 8.0261 5.74504 7.74667C5.8889 7.37713 6.06024 7.11347 6.33708 6.83625C6.61391 6.55904 6.87732 6.38744 7.24749 6.24421C7.5261 6.13556 7.94566 6.00702 8.71734 5.97194C9.55164 5.93356 9.80227 5.9259 11.915 5.9259C14.0277 5.9259 14.2786 5.93407 15.1136 5.97206C15.8853 6.00721 16.304 6.1367 16.5835 6.24434C16.953 6.38757 17.2167 6.55955 17.4939 6.83638C17.7711 7.11322 17.942 7.37726 18.0859 7.7468C18.1946 8.0254 18.3231 8.44496 18.3582 9.21664C18.3966 10.0516 18.4042 10.3016 18.4042 12.4153C18.4042 14.5289 18.3966 14.7789 18.3582 15.6139C18.323 16.3855 18.1939 16.805 18.0859 17.0837C17.942 17.4532 17.7707 17.7169 17.4939 17.9935C17.217 18.2701 16.953 18.4417 16.5835 18.5855C16.3048 18.6942 15.8853 18.8227 15.1136 18.8578C14.2793 18.8962 14.0287 18.9038 11.915 18.9038C9.80132 18.9038 9.55139 18.8962 8.71734 18.8578M8.6518 4.54793C7.8092 4.58631 7.23344 4.71991 6.73061 4.91557C6.21018 5.11762 5.76903 5.3887 5.32852 5.82852C4.888 6.26834 4.61762 6.70955 4.41557 7.23061C4.21991 7.73375 4.08631 8.3092 4.04793 9.1518C4.00893 9.99573 4 10.2655 4 12.415C4 14.5645 4.00893 14.8343 4.04793 15.6782C4.08631 16.5209 4.21991 17.0962 4.41557 17.5994C4.61762 18.1198 4.88806 18.5619 5.32852 19.0015C5.76897 19.4411 6.20955 19.7118 6.73061 19.9144C7.23439 20.1101 7.8092 20.2437 8.6518 20.2821C9.49618 20.3204 9.76554 20.33 11.915 20.33C14.0645 20.33 14.3343 20.3211 15.1782 20.2821C16.0209 20.2437 16.5962 20.1101 17.0994 19.9144C17.6198 19.7118 18.061 19.4413 18.5015 19.0015C18.942 18.5617 19.2118 18.1198 19.4144 17.5994C19.6101 17.0962 19.7443 16.5208 19.7821 15.6782C19.8204 14.8336 19.8294 14.5645 19.8294 12.415C19.8294 10.2655 19.8204 9.99573 19.7821 9.1518C19.7437 8.30914 19.6101 7.73344 19.4144 7.23061C19.2118 6.71018 18.9413 6.26903 18.5015 5.82852C18.0617 5.388 17.6198 5.11762 17.1 4.91557C16.5962 4.71991 16.0208 4.58567 15.1788 4.54793C14.3348 4.50937 14.0651 4.5 11.916 4.5C9.76681 4.5 9.49649 4.50893 8.65212 4.54793" fill="white"/>
<defs>
<radialGradient id="paint0_radial_1203_1496" cx="0" cy="0" r="1" gradientUnits="userSpaceOnUse" gradientTransform="translate(1.55326 23.9742) scale(30.4711)">
<stop offset="0.09" stop-color="#FA8F21"/>
<stop offset="0.78" stop-color="#D82D7E"/>
</radialGradient>
</defs>
</svg>
