<svg width="24" height="25" viewBox="0 0 24 25" fill="none" xmlns="http://www.w3.org/2000/svg">
<path d="M6 4.5H18C20.2091 4.5 22 6.29086 22 8.5V13.5C22 15.7091 20.2091 17.5 18 17.5H10C7.79086 17.5 6 15.7091 6 13.5V4.5ZM6 4.5C6 3.39543 5.10457 2.5 4 2.5H2" stroke="#28303F" stroke-width="1.5" stroke-linecap="round" stroke-linejoin="round"/>
<path d="M11 21C11 21.8284 10.3284 22.5 9.5 22.5C8.67157 22.5 8 21.8284 8 21C8 20.1716 8.67157 19.5 9.5 19.5C10.3284 19.5 11 20.1716 11 21Z" stroke="#28303F" stroke-width="1.5"/>
<path d="M20 21C20 21.8284 19.3284 22.5 18.5 22.5C17.6716 22.5 17 21.8284 17 21C17 20.1716 17.6716 19.5 18.5 19.5C19.3284 19.5 20 20.1716 20 21Z" stroke="#28303F" stroke-width="1.5"/>
<path d="M11 12.5C13.3561 13.8404 14.6476 13.8263 17 12.5" stroke="#28303F" stroke-width="1.5" stroke-linecap="round" stroke-linejoin="round"/>
</svg>
