<svg width="220" height="46" viewBox="0 0 220 46" fill="none" xmlns="http://www.w3.org/2000/svg">
<g clip-path="url(#clip0_1203_1418)">
<path fill-rule="evenodd" clip-rule="evenodd" d="M30.1087 19.9276C30.3684 20.4289 30.5679 20.9585 30.7032 21.5055C33.579 23.1295 36.2418 25.8078 37.3448 29.1795C37.9446 31.0086 38.041 32.9624 37.6242 34.8404C36.9613 37.7184 35.3176 40.284 32.9684 42.1075C28.5222 45.5996 21.7928 46.546 15.3821 44.9857C11.3119 43.9933 7.74669 42.3322 5.19318 38.9427C2.48747 35.3587 2.39972 31.6792 1.33606 30.0782C2.72585 30.9153 4.25014 31.5118 5.8432 31.8419C4.4984 27.3716 6.44487 23.922 10.7335 21.3552C10.8911 20.7802 10.9484 20.2796 11.2117 19.8126C9.95818 18.0648 10.5581 15.344 10.533 13.1664C12.8931 13.1664 14.7608 13.476 16.7592 14.9566C19.481 13.9784 22.1205 14.0721 24.708 14.8983C26.5255 13.3397 29.0934 13.3964 30.6172 13.3362C30.5259 15.5156 31.21 17.6898 30.1087 19.9276Z" fill="#EF7D00"/>
<path fill-rule="evenodd" clip-rule="evenodd" d="M13.1312 18.231C12.3577 16.8476 12.9862 14.9566 12.6854 14.2472C13.4321 14.5904 14.6551 14.042 16.0644 15.4147C14.93 16.1799 13.9378 17.1326 13.1312 18.231Z" fill="#28303F" stroke="#28303F" stroke-width="0.57" stroke-miterlimit="2.61"/>
<path fill-rule="evenodd" clip-rule="evenodd" d="M13.3533 17.3111C12.9414 16.8388 13.3963 15.3829 13.1742 14.7443C13.5324 14.8451 14.9756 14.4895 15.7259 15.3988C14.8536 15.9307 14.0558 16.5736 13.3533 17.3111Z" fill="#FBF0DC"/>
<path fill-rule="evenodd" clip-rule="evenodd" d="M30.6925 18.2328C31.3353 16.7857 30.5349 14.9601 30.7695 14.226C30.0532 14.6346 28.7997 14.1976 27.5122 15.6907C28.7128 16.3505 29.7888 17.2105 30.6925 18.2328Z" fill="#28303F" stroke="#28303F" stroke-width="0.57" stroke-miterlimit="2.61"/>
<path fill-rule="evenodd" clip-rule="evenodd" d="M30.3862 17.3359C30.7533 16.83 30.1677 15.4201 30.3253 14.7638C29.9672 14.8965 28.5078 14.6718 27.8434 15.6483C28.7628 16.0975 29.6178 16.6649 30.3862 17.3359Z" fill="#FBF0DC"/>
<path fill-rule="evenodd" clip-rule="evenodd" d="M11.747 26.779C11.6002 24.4138 11.8079 22.2538 12.6961 20.3645C17.2373 22.873 19.5741 27.5591 20.9332 33.22C18.6412 32.9493 14.1913 29.689 11.747 26.779Z" fill="white"/>
<path fill-rule="evenodd" clip-rule="evenodd" d="M13.1312 18.231C12.3577 16.8476 12.9862 14.9566 12.6854 14.2472C13.4321 14.5904 14.6551 14.042 16.0644 15.4147C14.93 16.1799 13.9378 17.1326 13.1312 18.231Z" fill="#28303F" stroke="#28303F" stroke-width="0.57" stroke-miterlimit="2.61"/>
<path fill-rule="evenodd" clip-rule="evenodd" d="M13.3533 17.3111C12.9414 16.8388 13.3963 15.3829 13.1742 14.7443C13.5324 14.8451 14.9756 14.4895 15.7259 15.3988C14.8536 15.9307 14.0558 16.5736 13.3533 17.3111Z" fill="#FBF0DC"/>
<path fill-rule="evenodd" clip-rule="evenodd" d="M30.6925 18.2328C31.3353 16.7857 30.5349 14.9601 30.7695 14.226C30.0532 14.6346 28.7997 14.1976 27.5122 15.6907C28.7128 16.3505 29.7888 17.2105 30.6925 18.2328Z" fill="#28303F" stroke="#28303F" stroke-width="0.57" stroke-miterlimit="2.61"/>
<path fill-rule="evenodd" clip-rule="evenodd" d="M30.3862 17.3359C30.7533 16.83 30.1677 15.4201 30.3253 14.7638C29.9672 14.8965 28.5078 14.6718 27.8434 15.6483C28.7628 16.0975 29.6178 16.6649 30.3862 17.3359Z" fill="#FBF0DC"/>
<path fill-rule="evenodd" clip-rule="evenodd" d="M11.747 26.779C11.6002 24.4138 11.8079 22.2538 12.6961 20.3645C17.2373 22.873 19.5741 27.5591 20.9332 33.22C18.6412 32.9493 14.1913 29.689 11.747 26.779Z" fill="white"/>
<path fill-rule="evenodd" clip-rule="evenodd" d="M16.9454 14.7867L16.7663 14.8416C14.4295 12.8213 11.0935 13.1911 10.4667 13.0354C10.3378 14.4347 9.89013 17.4456 11.0505 20.1415C10.3521 22.2538 10.0907 26.2853 10.3861 27.1646C11.0111 28.9973 16.1987 32.5901 19.1605 33.1792C19.6129 33.2729 20.0735 33.3221 20.5357 33.326C21.112 33.3436 21.6883 33.2943 22.253 33.1792C25.2094 32.5884 30.397 28.9955 31.0273 27.1646C31.3228 26.28 31.0613 22.2538 30.363 20.1415C31.5215 17.4456 31.0792 14.4347 30.9467 13.0354C30.32 13.1911 26.9947 12.786 24.6489 14.8044C21.9307 13.8987 19.4362 14.0101 16.9454 14.7867Z" fill="#28303F"/>
<path fill-rule="evenodd" clip-rule="evenodd" d="M37.1389 28.8876C36.1057 25.8626 33.853 23.4461 30.7032 21.5055C33.579 23.1294 36.2418 25.8077 37.3448 29.1795C37.9446 31.0085 38.041 32.9623 37.6242 34.8403C36.9613 37.7183 35.3176 40.2839 32.9684 42.1075C28.5222 45.5995 21.7928 46.5459 15.3821 44.9857C11.3119 43.9932 7.74669 42.3321 5.19318 38.9427C2.48747 35.3587 2.39972 31.6791 1.33606 30.0781C2.72585 30.9152 4.25014 31.5117 5.8432 31.8418C4.4984 27.3715 6.44487 23.9219 10.7335 21.3551C6.50217 24.4597 5.24332 28.9353 7.85234 32.254C9.03061 32.645 12.8519 31.9674 15.5612 32.5247C19.9394 33.7772 25.3312 34.4494 29.6539 32.0754C25.2237 35.1924 17.6832 33.4605 13.527 35.7001C14.4492 37.1153 14.7805 38.9869 17.4343 40.0271C16.0572 40.3331 14.904 41.1416 13.5968 41.2884C17.1782 43.8393 20.8867 44.9839 24.6991 44.784C28.1837 44.6071 31.3246 43.4554 33.862 41.023C34.9828 39.945 35.8832 38.6639 36.514 37.2497C37.7728 34.4635 38.1309 31.7941 37.1389 28.8876Z" fill="#28303F"/>
<path fill-rule="evenodd" clip-rule="evenodd" d="M20.2725 45.2015C10.961 44.9609 5.31673 40.2058 3.56366 32.76C6.36965 33.71 10.413 32.8891 12.8501 32.7317C15.2819 32.6433 17.6563 32.9086 19.9394 33.7754C16.3724 33.5985 12.8054 34.7484 10.49 34.483C12.1482 35.2526 12.7498 38.6296 15.631 39.9192C14.0281 40.5006 12.2966 40.6466 10.6171 40.342C12.8018 41.4742 15.1887 44.2993 20.2725 45.2015Z" fill="white"/>
<path fill-rule="evenodd" clip-rule="evenodd" d="M19.5759 32.4699C18.1989 28.5781 16.7914 23.1967 11.5178 20.2991C10.5294 18.1355 10.4972 15.6748 10.7031 13.2849C12.3613 13.2672 14.7876 13.299 16.7592 15.0751C16.8157 15.0607 16.8713 15.0429 16.9257 15.0221C19.4492 14.124 22.2134 14.1403 24.7259 15.0681C26.6956 13.299 29.1346 13.2654 30.7856 13.2849C30.9915 15.6748 30.9646 18.1355 29.9708 20.2991C24.6955 23.1967 23.288 28.5869 21.9127 32.4699C21.1428 32.3042 20.3458 32.3042 19.5759 32.4699Z" fill="#EF7D00"/>
<path fill-rule="evenodd" clip-rule="evenodd" d="M0.284909 15.6589L7.90783 9.61944C7.89915 9.57336 7.89495 9.52656 7.8953 9.47969V5.08722C7.8953 4.71572 8.14957 4.41322 8.46115 4.41322H10.0029C10.3145 4.42206 10.5706 4.71572 10.5706 5.08722V7.51077L19.7639 0.224183C19.9895 0.070388 20.259 -0.00795717 20.5329 0.000638818C20.8068 0.00923481 21.0708 0.10432 21.286 0.271947L40.654 15.6111C41.0873 15.9649 41.116 16.4956 40.7131 16.8158L39.0764 18.1125L21.2949 4.02403C21.08 3.85588 20.816 3.76047 20.5419 3.75186C20.2678 3.74326 19.9982 3.82194 19.7729 3.97627L1.92159 18.1125L0.344002 16.8636C-0.0893429 16.5186 -0.117994 15.9773 0.284909 15.6589Z" fill="#1D1D1B"/>
<path fill-rule="evenodd" clip-rule="evenodd" d="M29.5285 18.2204C30.1714 16.7751 29.9977 15.1671 29.79 14.272C29.507 14.341 27.6304 14.1853 26.3483 15.6872C27.5471 16.3458 28.6228 17.2026 29.5285 18.2204Z" fill="#28303F" stroke="#28303F" stroke-width="0.57" stroke-miterlimit="2.61"/>
<path fill-rule="evenodd" clip-rule="evenodd" d="M29.4533 17.8542C29.7452 17.2563 30.0979 15.841 29.7362 14.3551C29.0862 14.2967 27.2758 14.5762 26.4449 15.6571C27.5472 16.2463 28.5599 16.9859 29.4533 17.8542Z" fill="white"/>
<path fill-rule="evenodd" clip-rule="evenodd" d="M12.0031 18.2204C11.3603 16.7751 11.5322 15.1671 11.7417 14.272C12.0246 14.341 13.9013 14.1853 15.1834 15.6872C13.9838 16.3448 12.908 17.2017 12.0031 18.2204Z" fill="#28303F" stroke="#28303F" stroke-width="0.57" stroke-miterlimit="2.61"/>
<path fill-rule="evenodd" clip-rule="evenodd" d="M12.0712 17.8542C11.7793 17.2563 11.4247 15.841 11.7882 14.3551C12.4382 14.2967 14.2486 14.5762 15.0795 15.6571C13.9773 16.2463 12.9646 16.9859 12.0712 17.8542Z" fill="white"/>
<path fill-rule="evenodd" clip-rule="evenodd" d="M31.6558 39.6362C28.8087 43.5634 22.4392 44.9839 18.4603 43.9013C24.3409 44.6549 29.3333 42.196 31.9209 38.3466C32.1678 38.9788 32.2371 39.6652 32.1214 40.3332C37.0798 36.2167 37.5311 27.5962 31.9424 22.2892C36.8828 26.7595 38.926 35.8823 31.6236 41.4264C31.7454 40.8367 31.7563 40.2298 31.6558 39.6362Z" fill="#28303F" stroke="#28303F" stroke-width="0.22" stroke-miterlimit="2.61"/>
<path fill-rule="evenodd" clip-rule="evenodd" d="M30.8447 27.1026C31.1598 26.1473 30.8608 22.1883 29.9708 20.299C27.9026 21.4417 26.1065 22.8198 24.8369 24.7657C23.3202 27.0743 22.4768 30.0728 21.7408 33.1597C24.0777 33.0005 30.1123 29.1352 30.8447 27.1026Z" fill="white"/>
<path fill-rule="evenodd" clip-rule="evenodd" d="M28.0601 26.4746C28.0928 26.4746 28.1241 26.4871 28.1475 26.5096C28.1709 26.5321 28.1846 26.5627 28.1855 26.5949C28.1819 26.6265 28.1657 26.6555 28.1406 26.6754C28.1154 26.6953 28.0832 26.7045 28.0512 26.701C28.0186 26.701 27.9872 26.6885 27.9638 26.666C27.9404 26.6436 27.9268 26.613 27.9258 26.5807C27.9294 26.5491 27.9456 26.5201 27.9708 26.5002C27.996 26.4803 28.0281 26.4711 28.0601 26.4746Z" fill="white"/>
<path fill-rule="evenodd" clip-rule="evenodd" d="M27.5355 25.3938C27.601 25.515 27.6503 25.644 27.6823 25.7777C27.7156 25.9162 27.7324 26.0581 27.7324 26.2005C27.7376 26.5507 27.6298 26.8933 27.4244 27.1788C27.3383 27.3027 27.2239 27.4049 27.0905 27.4771C26.9571 27.5493 26.8083 27.5895 26.6562 27.5945C26.5288 27.5917 26.4032 27.5631 26.2874 27.5105C26.1716 27.4579 26.068 27.3823 25.9829 27.2885C25.7868 27.0724 25.6575 26.8054 25.6105 26.5189V26.4782L26.7153 25.5442L27.5158 25.3461L27.5426 25.3938H27.5355ZM27.5355 25.8113C27.5093 25.7071 27.4727 25.6058 27.4262 25.5088L26.7673 25.6733L25.7573 26.5349C25.804 26.7799 25.918 27.0075 26.0868 27.1929C26.1587 27.2726 26.2462 27.3369 26.3442 27.3819C26.4421 27.4269 26.5483 27.4517 26.6562 27.4547C26.7856 27.4503 26.912 27.4159 27.0255 27.3545C27.139 27.293 27.2364 27.2062 27.3098 27.1009C27.4956 26.8429 27.5935 26.5331 27.5892 26.2164C27.5905 26.0801 27.5755 25.9441 27.5444 25.8113H27.5355Z" fill="#28303F"/>
<path fill-rule="evenodd" clip-rule="evenodd" d="M26.6867 26.0413C26.3411 26.3172 26.3554 26.9948 26.7368 27.2177C27.1379 26.9877 27.0968 26.1934 26.6867 26.0413Z" fill="#28303F"/>
<path fill-rule="evenodd" clip-rule="evenodd" d="M26.6419 26.4092C26.6746 26.4092 26.7059 26.4217 26.7293 26.4442C26.7527 26.4666 26.7663 26.4972 26.7673 26.5295C26.7637 26.5611 26.7475 26.5901 26.7223 26.61C26.6972 26.6299 26.665 26.6391 26.633 26.6356C26.6003 26.6356 26.569 26.6231 26.5456 26.6006C26.5222 26.5781 26.5086 26.5475 26.5076 26.5153C26.5112 26.4837 26.5274 26.4547 26.5526 26.4348C26.5777 26.4149 26.6099 26.4057 26.6419 26.4092Z" fill="white"/>
<path fill-rule="evenodd" clip-rule="evenodd" d="M24.9676 28.4153C24.9676 27.177 25.29 25.9723 26.4736 25.2948C27.3797 24.9003 28.2088 25.1851 28.669 24.6951C28.6007 24.836 28.5409 24.9807 28.4899 25.1285C28.3786 25.4282 28.3316 25.7475 28.352 26.0661C28.3765 26.3374 28.362 26.6107 28.309 26.878C28.1461 27.4406 27.736 27.69 27.2346 27.9111C26.4879 28.2419 25.8021 28.4719 24.9641 28.4153H24.9676ZM27.2131 27.8174C27.6375 27.5963 27.967 27.3911 28.1837 26.9488C28.4792 26.3456 28.2195 25.7618 28.2105 25.3355C27.7897 25.5336 27.2884 25.599 26.6831 25.9794C26.315 26.216 25.9848 26.5058 25.7036 26.8391C25.3069 27.2761 25.0693 27.8315 25.0285 28.4171C25.7926 28.3789 26.5387 28.1741 27.2131 27.8174Z" fill="#28303F"/>
<path fill-rule="evenodd" clip-rule="evenodd" d="M10.6422 27.1026C10.327 26.1473 10.6261 22.1883 11.516 20.299C13.5843 21.4417 15.3803 22.8198 16.6589 24.7657C18.1756 27.0743 19.019 30.0728 19.755 33.1597C17.4092 33.0005 11.3746 29.1352 10.6422 27.1026Z" fill="white"/>
<path fill-rule="evenodd" clip-rule="evenodd" d="M13.4356 26.4746C13.403 26.4746 13.3717 26.4871 13.3483 26.5096C13.3249 26.5321 13.3112 26.5627 13.3103 26.5949C13.3139 26.6265 13.3301 26.6555 13.3552 26.6754C13.3804 26.6953 13.4126 26.7045 13.4446 26.701C13.4772 26.701 13.5086 26.6885 13.532 26.666C13.5554 26.6436 13.569 26.613 13.57 26.5807C13.5664 26.5491 13.5502 26.5201 13.525 26.5002C13.4998 26.4803 13.4677 26.4711 13.4356 26.4746Z" fill="white"/>
<path fill-rule="evenodd" clip-rule="evenodd" d="M13.9514 25.3938C13.8859 25.515 13.8365 25.644 13.8045 25.7777C13.7713 25.9162 13.7544 26.0581 13.7544 26.2005C13.7492 26.5507 13.8571 26.8933 14.0624 27.1788C14.1479 27.303 14.2619 27.4055 14.395 27.4781C14.5282 27.5506 14.6768 27.5911 14.8288 27.5963C14.9563 27.5938 15.0819 27.5654 15.1978 27.5127C15.3137 27.46 15.4173 27.3843 15.5021 27.2902C15.6995 27.0748 15.8295 26.8075 15.8763 26.5207V26.48L14.7787 25.5442L13.9729 25.3461L13.946 25.3938H13.9514ZM13.9514 25.8113C13.9775 25.7071 14.0141 25.6058 14.0606 25.5088L14.7196 25.6733L15.7277 26.5349C15.6836 26.7788 15.5721 27.006 15.4054 27.1912C15.3333 27.271 15.2454 27.3354 15.1472 27.3805C15.049 27.4255 14.9424 27.4502 14.8342 27.453C14.7051 27.4482 14.579 27.4137 14.4659 27.3523C14.3527 27.2909 14.2556 27.2042 14.1824 27.0992C13.9965 26.8411 13.8987 26.5313 13.903 26.2147C13.9001 26.0792 13.9133 25.9438 13.9424 25.8113H13.9514Z" fill="#28303F"/>
<path fill-rule="evenodd" clip-rule="evenodd" d="M14.8001 26.0413C15.1457 26.3172 15.1314 26.9948 14.75 27.2177C14.3489 26.9877 14.3901 26.1934 14.8001 26.0413Z" fill="#28303F"/>
<path fill-rule="evenodd" clip-rule="evenodd" d="M14.8449 26.4092C14.8123 26.4092 14.7809 26.4217 14.7575 26.4442C14.7341 26.4666 14.7205 26.4972 14.7195 26.5295C14.7231 26.5611 14.7393 26.5901 14.7645 26.61C14.7897 26.6299 14.8218 26.6391 14.8538 26.6356C14.8865 26.6356 14.9178 26.6231 14.9412 26.6006C14.9646 26.5781 14.9783 26.5475 14.9792 26.5153C14.9756 26.4837 14.9594 26.4547 14.9343 26.4348C14.9091 26.4149 14.8769 26.4057 14.8449 26.4092Z" fill="white"/>
<path fill-rule="evenodd" clip-rule="evenodd" d="M16.5192 28.4153C16.5192 27.177 16.1969 25.9723 15.0132 25.2948C14.1072 24.9003 13.2781 25.1851 12.8179 24.6951C12.8861 24.836 12.9459 24.9807 12.9969 25.1285C13.1083 25.4282 13.1552 25.7475 13.1348 26.0661C13.1103 26.3374 13.1248 26.6107 13.1778 26.878C13.3407 27.4406 13.7508 27.69 14.2522 27.9111C14.9989 28.2419 15.6847 28.4719 16.5228 28.4153H16.5192ZM14.2737 27.8174C13.8475 27.5963 13.5198 27.3911 13.3031 26.9488C13.0077 26.3456 13.2673 25.7618 13.2745 25.3355C13.6971 25.5336 14.1985 25.599 14.8037 25.9794C15.1719 26.216 15.502 26.5058 15.7832 26.8391C16.18 27.2761 16.4176 27.8315 16.4583 28.4171C15.6942 28.3791 14.9481 28.1743 14.2737 27.8174Z" fill="#28303F"/>
<path fill-rule="evenodd" clip-rule="evenodd" d="M20.7058 33.5313C20.054 33.4764 19.0942 33.0306 19.053 32.5654C19.3646 32.1196 19.8427 31.8578 20.7058 31.8365C21.5689 31.8613 22.0453 32.1196 22.3586 32.5654C22.3246 33.0306 21.3576 33.4764 20.7058 33.5313Z" fill="#1D1D1B"/>
</g>
<path fill-rule="evenodd" clip-rule="evenodd" d="M134.15 16.9515L133.864 18.4195C134.759 19.1079 134.616 18.2977 134.958 19.3516C135.175 20.0216 134.958 24.9802 134.921 25.9914C134.921 27.3437 135.039 28.891 134.921 30.2067C134.722 32.954 133.529 30.1336 133.529 33.4901C136.959 33.1672 140.899 34.0566 144.218 32.8322C148.86 31.1205 149.749 20.5272 144.597 17.4327C142.49 16.1596 136.884 16.4581 134.125 16.9515H134.15ZM138.5 31.4616C138.768 30.5113 138.917 20.582 139.153 18.5353C140.794 18.4622 142.788 19.1444 143.298 20.2775C144.976 23.9385 144.522 32.8078 138.5 31.4494V31.4616Z" fill="#28303F"/>
<path fill-rule="evenodd" clip-rule="evenodd" d="M99.1114 26.2167L95.8549 16.9758C94.1944 16.5644 92.4602 16.529 90.7837 16.8723C89.9261 19.1749 91.1441 17.6215 91.3244 19.7414L90.9888 31.1022C90.3673 31.9306 89.8204 31.6261 90.1436 33.2464C91.389 33.4885 92.6622 33.5643 93.9283 33.4718C95.7927 33.4414 96.1905 33.8556 96.0538 31.888C95.5851 31.6407 95.0829 31.4601 94.5622 31.3519L94.7362 19.2236C95.4509 20.3018 98.347 30.6941 99.6334 32.351C101.349 32.4362 101.019 32.4545 101.349 30.8159C101.584 29.9078 101.887 29.018 102.256 28.1539C102.878 26.3264 103.499 24.8888 104.12 23.0187C104.45 23.6278 104.214 27.2828 104.17 27.9894C103.891 32.8627 104.332 30.8463 102.635 31.8088C102.449 33.2403 102.337 33.2891 103.878 33.3682C104.913 33.5105 105.966 33.4672 106.985 33.2403C107.383 31.1753 106.985 32.1195 106.004 31.3276C105.687 28.1356 106.128 21.9344 106.389 18.5779C107.557 18.1637 108.023 18.3464 107.445 16.525C101.417 16.0682 102.778 17.2621 101.815 19.7353C101.119 21.5689 100.429 25.1568 99.1114 26.2167Z" fill="#28303F"/>
<path fill-rule="evenodd" clip-rule="evenodd" d="M196.689 33.149L200.299 33.3195L200.337 31.9916L199.715 31.6626C199.038 31.1692 199.175 30.6514 199.175 28.9092L203.264 28.8544L204.339 31.291C203.369 31.9002 202.99 31.5347 203.32 33.0576H209.174V31.7601C207.844 30.9986 207.931 31.9489 207.353 30.4016C206.993 29.4087 206.614 28.9579 206.427 27.9224C207.801 27.1853 208.441 26.4543 208.727 24.6573C208.95 23.2562 209.118 20.9658 208.509 19.717C207.855 18.5268 206.826 17.5759 205.576 17.0063C205.414 16.9332 194.569 15.3554 196.974 18.3281C198.255 19.9059 197.546 18.9373 197.509 23.3111C197.509 24.2126 197.621 30.7123 197.291 31.2301C196.856 31.9428 195.918 31.5956 196.67 33.1185L196.689 33.149ZM199.268 26.9965C198.945 25.4431 199.355 20.2957 199.46 18.4073C204.121 17.9626 204.687 19.2419 204.693 22.8785C204.693 27.3559 203.686 27.1853 199.268 26.9965Z" fill="#28303F"/>
<path fill-rule="evenodd" clip-rule="evenodd" d="M66.3475 17.987C67.3108 18.7119 67.4786 17.8103 67.4475 21.9892C67.4475 23.3963 67.6339 26.101 67.1554 27.1792C66.1051 27.6056 62.3701 27.2888 61.0526 27.1426L61.3695 18.322C61.9164 17.7129 61.8232 17.7129 61.7113 16.6469C59.9153 16.6469 57.8893 16.5616 56.3791 16.988L56.087 18.4195C57.8209 18.9495 57.5599 18.517 57.5475 24.2187C57.5475 25.5771 57.2119 26.3203 57.3175 27.7701C57.497 29.0176 57.5179 30.2821 57.3797 31.5347L56.0559 31.9489L56 33.4596C57.4977 33.4596 61.4814 33.551 62.5068 33.2159L62.5689 31.9976L61.2452 31.4494L61.2017 28.9275L67.4164 29.1407L67.3418 31.8027L65.8627 32.0768C65.6328 34.5134 66.8633 33.2586 69.3181 33.3926C70.213 33.4413 70.039 33.5388 70.7413 33.1367L70.3063 32.0403L70.1509 31.9733C69.8893 31.8786 69.644 31.745 69.4238 31.5773C69.2995 29.6158 69.5232 19.9424 69.9707 18.5779C70.9712 17.8164 71.1577 18.4865 71.0272 16.6529C66.3537 17.0002 66.1735 15.794 66.3475 17.987Z" fill="#28303F"/>
<path fill-rule="evenodd" clip-rule="evenodd" d="M185.626 16.6042C183.719 17.055 183.047 17.3047 182.357 19.0408C181.668 20.7769 181.202 27.3497 183.37 28.7874C184.713 29.6889 190.611 30.761 191.617 26.9964C192.054 25.2117 192.149 23.3631 191.897 21.5445C191.276 18.054 189.666 15.6113 185.626 16.5677V16.6042ZM186.074 27.5142C185.421 26.101 185.751 24.1639 185.807 22.4338C185.906 19.3332 185.807 18.4682 187.578 18.4865C188.659 19.9728 188.38 21.648 188.504 23.7679C188.634 26.101 189.057 28.032 186.074 27.5142Z" fill="#28303F"/>
<path fill-rule="evenodd" clip-rule="evenodd" d="M79.4978 16.6226C77.534 17.1038 76.8379 17.4693 76.2351 19.3212C75.7006 20.9537 75.1165 27.49 77.3973 28.8484C78.7396 29.6464 80.7781 29.8291 82.5555 29.5306C84.3329 29.2322 85.2402 28.4951 85.6628 26.7772C86.3402 23.9264 86.0792 19.4308 84.0967 17.4023C83.2142 16.4947 80.8837 16.2936 79.5165 16.6226H79.4978ZM80.0385 27.5874C79.473 26.3691 79.1933 16.2205 81.76 18.8034C82.5617 19.6135 82.3815 22.8055 82.4809 24.0787C82.6487 26.5762 82.8476 27.7945 80.0385 27.5631V27.5874Z" fill="#28303F"/>
<path fill-rule="evenodd" clip-rule="evenodd" d="M121.528 25.5467C121.528 24.036 121.677 23.8898 120.018 23.9507C118.976 23.9861 117.938 24.0879 116.91 24.2553C116.68 26.4117 117.221 25.0229 117.495 26.2777C117.849 27.8615 115.263 28.5864 115.009 26.4422C114.938 25.4863 114.955 24.5261 115.058 23.5731C117.221 23.1527 119.912 23.433 121.273 22.9639L121.453 22.8847C121.926 19.4247 121.006 16.7078 117.501 16.4215C113.84 16.1231 112.162 18.249 111.87 21.5324C111.603 24.5782 111.168 28.4829 114.797 29.3052C116.873 29.7743 120.099 29.9631 120.353 27.2828C120.515 25.5833 120.353 26.3691 121.509 25.5346L121.528 25.5467ZM115.313 21.7151C115.291 20.8922 115.396 20.0708 115.624 19.2785C115.928 18.3769 116.202 18.3221 117.308 18.2612V21.8065L115.313 21.7151Z" fill="#28303F"/>
<path fill-rule="evenodd" clip-rule="evenodd" d="M161.75 26.1437L162.843 25.5833L162.769 24.1396C161.805 23.835 159.183 24.036 158.207 24.2797C157.983 26.7163 159.581 25.0533 158.549 27.5387C157.617 27.8372 156.641 27.9164 156.38 26.8321C156.224 25.7919 156.224 24.735 156.38 23.6949L162.769 23.0309C162.93 19.6013 162.638 17.0124 159.183 16.4825C155.609 15.9403 153.776 17.8592 153.254 20.8075C153.046 22.4581 152.987 24.1236 153.08 25.7843C153.335 29.1408 156.566 29.9814 159.562 29.4027C161.737 28.9824 161.501 28.2879 161.725 26.1498L161.75 26.1437ZM156.616 21.7029C156.615 20.8804 156.724 20.0612 156.939 19.2663C157.25 18.3343 157.499 18.2978 158.63 18.2429V21.7882L156.616 21.7029Z" fill="#28303F"/>
<path fill-rule="evenodd" clip-rule="evenodd" d="M169.164 30.2311C169.269 28.696 168.747 28.2392 168.841 26.2716C168.983 23.4755 168.437 19.2297 171.488 18.4256C171.773 18.3509 172.069 18.32 172.364 18.3343C173.551 18.5292 173.439 19.5038 173.464 21.2887L172.271 21.7273C172.19 23.5913 171.799 23.1771 177.659 23.104C177.883 21.1486 177.752 21.8369 176.77 21.1181C176.77 18.6815 177.069 16.9819 174.508 16.6652C167.287 15.7758 166.846 22.3242 167.206 27.8067C167.287 29.0737 167.765 31.5408 168.617 32.3997C170.257 34.0383 174.179 33.7459 175.639 32.284C176.733 31.1936 176.317 29.7803 176.385 28.0564C177.348 27.2645 177.237 28.0564 177.187 26.034C175.608 26.034 173.365 25.7233 172.134 26.4543C171.998 28.891 172.526 27.0635 172.756 28.4828C173.073 30.2798 172.818 32.0586 170.438 31.6748C169.456 31.4982 169.356 31.023 169.164 30.2311Z" fill="#28303F"/>
<path fill-rule="evenodd" clip-rule="evenodd" d="M111.876 33.3255C113.001 33.7885 119.148 33.1428 121.199 33.1245V30.3894C119.185 30.3894 117.041 30.5539 114.984 30.566C112.374 30.5843 111.069 29.8411 111.876 33.3255Z" fill="#28303F"/>
<path fill-rule="evenodd" clip-rule="evenodd" d="M153.198 30.6513C152.962 31.5277 152.962 32.4491 153.198 33.3255C154.242 33.7702 160.507 33.1428 162.52 33.1245V30.3894L153.198 30.6513Z" fill="#28303F"/>
<path fill-rule="evenodd" clip-rule="evenodd" d="M85.4142 33.2159C85.4741 32.8126 85.495 32.4047 85.4764 31.9976C85.4018 31.029 85.5509 31.3884 85.1346 31.0412C84.4572 30.3346 77.8509 30.7793 76.4029 30.8463C74.9238 33.7154 76.8814 33.49 79.1746 33.4474C80.7532 33.4047 84.0967 33.6606 85.4142 33.2159Z" fill="#28303F"/>
<path fill-rule="evenodd" clip-rule="evenodd" d="M182.239 30.9316C182.146 31.9062 181.947 32.3144 182.239 33.2647C183.545 33.5875 190.064 33.551 191.45 33.2647V30.9194C190.008 30.5661 183.737 30.6026 182.239 30.9316Z" fill="#28303F"/>
<path fill-rule="evenodd" clip-rule="evenodd" d="M210.889 16.6225V11.9564H209.186V11.0061H213.742V11.9564H212.051V16.6286L210.889 16.6225ZM214.475 16.6225V11H216.215L217.241 14.8377L218.26 11H220V16.6225H218.931V12.194L217.8 16.6225H216.681L215.556 12.194V16.6225H214.475Z" fill="#28303F"/>
<defs>
<clipPath id="clip0_1203_1418">
<rect width="41" height="46" fill="white"/>
</clipPath>
</defs>
</svg>
