<svg width="77" height="85" viewBox="0 0 77 85" fill="none" xmlns="http://www.w3.org/2000/svg">
<g clip-path="url(#clip0_106_288)">
<path fill-rule="evenodd" clip-rule="evenodd" d="M54.022 32.4044C54.4452 33.2196 54.7703 34.0808 54.9907 34.9703C59.6768 37.611 64.0157 41.9662 65.8131 47.4489C66.7905 50.4232 66.9476 53.6002 66.2683 56.654C65.1882 61.3338 62.5099 65.5057 58.6818 68.471C51.4367 74.1493 40.4713 75.6883 30.0253 73.1512C23.393 71.5374 17.5835 68.8363 13.4226 63.3248C9.01365 57.4968 8.87067 51.5135 7.13745 48.9102C9.4021 50.2714 11.8859 51.2413 14.4818 51.7782C12.2904 44.5091 15.4622 38.8997 22.4505 34.7258C22.7073 33.7909 22.8006 32.9769 23.2296 32.2175C21.1871 29.3754 22.1645 24.9512 22.1237 21.4102C25.9695 21.4102 29.0128 21.9136 32.2692 24.3213C36.7044 22.7305 41.0053 22.883 45.2216 24.2263C48.1833 21.6921 52.3675 21.7841 54.8507 21.6863C54.7019 25.2303 55.8165 28.7656 54.022 32.4044Z" fill="#EF7D00"/>
<path fill-rule="evenodd" clip-rule="evenodd" d="M26.3575 29.6455C25.097 27.396 26.1212 24.321 25.631 23.1675C26.8477 23.7255 28.8407 22.8338 31.137 25.066C29.2886 26.3102 27.6717 27.8595 26.3575 29.6455Z" fill="#28303F" stroke="#28303F" stroke-width="0.57" stroke-miterlimit="2.61"/>
<path fill-rule="evenodd" clip-rule="evenodd" d="M26.7193 28.15C26.0482 27.3819 26.7894 25.0145 26.4276 23.9761C27.0111 24.14 29.3629 23.5618 30.5855 25.0404C29.164 25.9053 27.8642 26.9508 26.7193 28.15Z" fill="#FBF0DC"/>
<path fill-rule="evenodd" clip-rule="evenodd" d="M54.9732 29.6488C56.0207 27.2957 54.7164 24.3271 55.0986 23.1333C53.9315 23.7978 51.889 23.0873 49.791 25.5151C51.7474 26.5879 53.5006 27.9864 54.9732 29.6488Z" fill="#28303F" stroke="#28303F" stroke-width="0.57" stroke-miterlimit="2.61"/>
<path fill-rule="evenodd" clip-rule="evenodd" d="M54.4743 28.1904C55.0724 27.3677 54.1183 25.075 54.3751 24.0078C53.7915 24.2236 51.4134 23.8582 50.3309 25.4461C51.8289 26.1765 53.2221 27.0992 54.4743 28.1904Z" fill="#FBF0DC"/>
<path fill-rule="evenodd" clip-rule="evenodd" d="M24.102 43.5452C23.8628 39.6992 24.2012 36.1869 25.6485 33.1147C33.0483 37.1937 36.8561 44.8138 39.0708 54.0188C35.3359 53.5787 28.0849 48.2772 24.102 43.5452Z" fill="white"/>
<path fill-rule="evenodd" clip-rule="evenodd" d="M26.3575 29.6455C25.097 27.396 26.1212 24.321 25.631 23.1675C26.8477 23.7255 28.8407 22.8338 31.137 25.066C29.2886 26.3102 27.6717 27.8595 26.3575 29.6455Z" fill="#28303F" stroke="#28303F" stroke-width="0.57" stroke-miterlimit="2.61"/>
<path fill-rule="evenodd" clip-rule="evenodd" d="M26.7193 28.15C26.0482 27.3819 26.7894 25.0145 26.4276 23.9761C27.0111 24.14 29.3629 23.5618 30.5855 25.0404C29.164 25.9053 27.8642 26.9508 26.7193 28.15Z" fill="#FBF0DC"/>
<path fill-rule="evenodd" clip-rule="evenodd" d="M54.9732 29.6488C56.0207 27.2957 54.7164 24.3271 55.0986 23.1333C53.9315 23.7978 51.889 23.0873 49.791 25.5151C51.7474 26.5879 53.5006 27.9864 54.9732 29.6488Z" fill="#28303F" stroke="#28303F" stroke-width="0.57" stroke-miterlimit="2.61"/>
<path fill-rule="evenodd" clip-rule="evenodd" d="M54.4743 28.1904C55.0724 27.3677 54.1183 25.075 54.3751 24.0078C53.7915 24.2236 51.4134 23.8582 50.3309 25.4461C51.8289 26.1765 53.2221 27.0992 54.4743 28.1904Z" fill="#FBF0DC"/>
<path fill-rule="evenodd" clip-rule="evenodd" d="M24.102 43.5452C23.8628 39.6992 24.2012 36.1869 25.6485 33.1147C33.0483 37.1937 36.8561 44.8138 39.0708 54.0188C35.3359 53.5787 28.0849 48.2772 24.102 43.5452Z" fill="white"/>
<path fill-rule="evenodd" clip-rule="evenodd" d="M32.5726 24.0451L32.2808 24.1343C28.473 20.8492 23.037 21.4504 22.0157 21.1973C21.8056 23.4726 21.0762 28.3686 22.9669 32.7525C21.829 36.1871 21.403 42.7428 21.8844 44.1725C22.9028 47.1526 31.3559 52.995 36.182 53.9529C36.9192 54.1052 37.6698 54.1852 38.423 54.1916C39.362 54.2201 40.3011 54.14 41.2212 53.9529C46.0386 52.9921 54.4917 47.1498 55.5188 44.1725C56.0003 42.7342 55.5743 36.1871 54.4363 32.7525C56.3242 28.3686 55.6035 23.4726 55.3875 21.1973C54.3663 21.4504 48.9478 20.7917 45.1253 24.0738C40.696 22.601 36.6314 22.7823 32.5726 24.0451Z" fill="#28303F"/>
<path fill-rule="evenodd" clip-rule="evenodd" d="M65.4776 46.9741C63.794 42.0551 60.1233 38.1257 54.9907 34.9701C59.6768 37.6108 64.0157 41.9659 65.8131 47.4487C66.7905 50.4229 66.9476 53.5999 66.2683 56.6537C65.1882 61.3336 62.5099 65.5054 58.6818 68.4707C51.4367 74.1491 40.4713 75.6881 30.0253 73.1509C23.393 71.5372 17.5835 68.836 13.4226 63.3245C9.01365 57.4966 8.87067 51.5133 7.13745 48.91C9.4021 50.2712 11.8859 51.2411 14.4818 51.7779C12.2904 44.5088 15.4622 38.8995 22.4505 34.7256C15.5555 39.774 13.5043 47.0517 17.7556 52.4482C19.6756 53.0839 25.9024 51.9822 30.3171 52.8883C37.4513 54.9249 46.2371 56.018 53.2808 52.1576C46.062 57.2262 33.7748 54.41 27.0024 58.0518C28.5051 60.353 29.0449 63.3964 33.3692 65.0879C31.1254 65.5855 29.2462 66.9001 27.1162 67.1389C32.952 71.2869 38.9949 73.148 45.2071 72.823C50.8853 72.5353 56.0032 70.6627 60.1379 66.7074C61.9643 64.9544 63.4315 62.8713 64.4593 60.5716C66.5105 56.041 67.0941 51.7003 65.4776 46.9741Z" fill="#28303F"/>
<path fill-rule="evenodd" clip-rule="evenodd" d="M37.994 73.502C22.821 73.1108 13.6239 65.3785 10.7673 53.271C15.3396 54.8157 21.9282 53.481 25.8994 53.225C29.8619 53.0811 33.731 53.5126 37.4513 54.9221C31.6389 54.6345 25.8265 56.5043 22.0536 56.0728C24.7556 57.3241 25.736 62.8155 30.4309 64.9125C27.8189 65.8579 24.9975 66.0953 22.2608 65.6C25.8206 67.441 29.7102 72.0349 37.994 73.502Z" fill="white"/>
<path fill-rule="evenodd" clip-rule="evenodd" d="M36.859 52.7992C34.6151 46.4707 32.3217 37.7201 23.7285 33.0083C22.1178 29.4903 22.0653 25.4889 22.4009 21.6027C25.1028 21.5739 29.0566 21.6257 32.2691 24.5138C32.3612 24.4902 32.4518 24.4614 32.5405 24.4275C36.6525 22.9672 41.1568 22.9937 45.2508 24.5023C48.4605 21.6257 52.4346 21.571 55.1249 21.6027C55.4605 25.4889 55.4167 29.4903 53.7973 33.0083C45.2012 37.7201 42.9077 46.4851 40.6668 52.7992C39.4122 52.5298 38.1135 52.5298 36.859 52.7992Z" fill="#EF7D00"/>
<path fill-rule="evenodd" clip-rule="evenodd" d="M5.42464 25.4632L17.8461 15.6425C17.8319 15.5676 17.8251 15.4915 17.8256 15.4153V8.27274C17.8256 7.66866 18.24 7.17677 18.7477 7.17677H21.26C21.7677 7.19115 22.185 7.66866 22.185 8.27274V12.2137L37.1654 0.36503C37.5329 0.114945 37.9721 -0.0124508 38.4184 0.00152705C38.8648 0.0155049 39.2949 0.170121 39.6456 0.442697L71.2054 25.3855C71.9115 25.9608 71.9582 26.8238 71.3017 27.3445L68.6347 29.453L39.6602 6.54392C39.3098 6.27049 38.8797 6.11533 38.4331 6.10135C37.9865 6.08736 37.5472 6.21529 37.18 6.46625L8.09159 29.453L5.52093 27.4221C4.81481 26.8612 4.76812 25.981 5.42464 25.4632Z" fill="#1D1D1B"/>
<path fill-rule="evenodd" clip-rule="evenodd" d="M53.0766 29.6285C54.1241 27.2784 53.8411 24.6636 53.5026 23.208C53.0416 23.3202 49.9836 23.0671 47.8944 25.5093C49.848 26.5802 51.6008 27.9735 53.0766 29.6285Z" fill="#28303F" stroke="#28303F" stroke-width="0.57" stroke-miterlimit="2.61"/>
<path fill-rule="evenodd" clip-rule="evenodd" d="M52.954 29.0328C53.4297 28.0605 54.0045 25.7592 53.4151 23.3429C52.3559 23.248 49.4059 23.7025 48.052 25.4601C49.848 26.4182 51.4982 27.6209 52.954 29.0328Z" fill="white"/>
<path fill-rule="evenodd" clip-rule="evenodd" d="M24.5192 29.6285C23.4717 27.2784 23.7518 24.6636 24.0932 23.208C24.5543 23.3202 27.6122 23.0671 29.7014 25.5093C27.7467 26.5786 25.9937 27.9721 24.5192 29.6285Z" fill="#28303F" stroke="#28303F" stroke-width="0.57" stroke-miterlimit="2.61"/>
<path fill-rule="evenodd" clip-rule="evenodd" d="M24.6302 29.0328C24.1546 28.0605 23.5768 25.7592 24.1692 23.3429C25.2283 23.248 28.1783 23.7025 29.5322 25.4601C27.7362 26.4182 26.086 27.6209 24.6302 29.0328Z" fill="white"/>
<path fill-rule="evenodd" clip-rule="evenodd" d="M56.543 64.4524C51.9036 70.8384 41.5247 73.1483 35.0411 71.3878C44.6235 72.6132 52.7585 68.6148 56.9749 62.3553C57.3773 63.3834 57.4902 64.4996 57.3017 65.5857C65.3813 58.8919 66.1166 44.8744 57.0099 36.2446C65.0603 43.5137 68.3896 58.3483 56.4905 67.3635C56.6889 66.4045 56.7067 65.4177 56.543 64.4524Z" fill="#28303F" stroke="#28303F" stroke-width="0.22" stroke-miterlimit="2.61"/>
<path fill-rule="evenodd" clip-rule="evenodd" d="M55.2212 44.0716C55.7348 42.5183 55.2475 36.0805 53.7973 33.0083C50.4271 34.8666 47.5005 37.1074 45.4317 40.2717C42.9603 44.0256 41.586 48.9014 40.3867 53.921C44.1946 53.6621 54.0278 47.3768 55.2212 44.0716Z" fill="white"/>
<path fill-rule="evenodd" clip-rule="evenodd" d="M50.6839 43.0505C50.7371 43.0505 50.7882 43.0709 50.8263 43.1074C50.8645 43.1439 50.8867 43.1937 50.8882 43.2461C50.8823 43.2976 50.856 43.3446 50.815 43.377C50.7739 43.4094 50.7216 43.4243 50.6693 43.4187C50.6162 43.4187 50.5651 43.3983 50.5269 43.3618C50.4888 43.3252 50.4666 43.2755 50.4651 43.2231C50.471 43.1716 50.4973 43.1245 50.5383 43.0922C50.5793 43.0598 50.6317 43.0448 50.6839 43.0505Z" fill="white"/>
<path fill-rule="evenodd" clip-rule="evenodd" d="M49.829 41.293C49.9357 41.49 50.0161 41.6998 50.0682 41.9172C50.1225 42.1425 50.1499 42.3732 50.1499 42.6047C50.1585 43.1741 49.9827 43.7313 49.6481 44.1955C49.5078 44.397 49.3214 44.5632 49.1039 44.6806C48.8865 44.798 48.6441 44.8634 48.3963 44.8715C48.1886 44.867 47.9841 44.8205 47.7954 44.7349C47.6066 44.6493 47.4378 44.5264 47.2992 44.3738C46.9796 44.0226 46.7689 43.5883 46.6923 43.1225V43.0563L48.4926 41.5375L49.7969 41.2153L49.8407 41.293H49.829ZM49.829 41.9719C49.7864 41.8025 49.7268 41.6377 49.651 41.48L48.5772 41.7475L46.9315 43.1484C47.0076 43.5469 47.1934 43.917 47.4684 44.2185C47.5855 44.348 47.7282 44.4525 47.8878 44.5257C48.0473 44.5989 48.2204 44.6393 48.3963 44.6442C48.6071 44.6369 48.8131 44.5811 48.9981 44.4812C49.183 44.3813 49.3417 44.2401 49.4613 44.0689C49.7641 43.6493 49.9235 43.1455 49.9165 42.6306C49.9187 42.409 49.8942 42.1878 49.8436 41.9719H49.829Z" fill="#28303F"/>
<path fill-rule="evenodd" clip-rule="evenodd" d="M48.4459 42.3457C47.8827 42.7944 47.9061 43.8962 48.5276 44.2586C49.1812 43.8847 49.1141 42.5931 48.4459 42.3457Z" fill="#28303F"/>
<path fill-rule="evenodd" clip-rule="evenodd" d="M48.373 42.944C48.4261 42.944 48.4772 42.9644 48.5154 43.001C48.5535 43.0375 48.5757 43.0872 48.5772 43.1396C48.5713 43.1911 48.545 43.2382 48.504 43.2706C48.463 43.3029 48.4106 43.3179 48.3584 43.3122C48.3052 43.3123 48.2541 43.2918 48.216 43.2553C48.1778 43.2188 48.1556 43.169 48.1541 43.1166C48.16 43.0652 48.1863 43.0181 48.2273 42.9857C48.2684 42.9534 48.3207 42.9384 48.373 42.944Z" fill="white"/>
<path fill-rule="evenodd" clip-rule="evenodd" d="M45.6447 46.2062C45.6447 44.1926 46.17 42.2336 48.0987 41.1319C49.5751 40.4904 50.9261 40.9536 51.676 40.1567C51.5648 40.3858 51.4674 40.6211 51.3842 40.8615C51.2028 41.3488 51.1263 41.868 51.1596 42.3861C51.1994 42.8273 51.1758 43.2718 51.0895 43.7064C50.824 44.6212 50.1558 45.0268 49.3388 45.3864C48.122 45.9243 47.0045 46.2982 45.6389 46.2062H45.6447ZM49.3038 45.2339C49.9953 44.8743 50.5322 44.5406 50.8853 43.8215C51.3667 42.8406 50.9436 41.8913 50.929 41.1981C50.2433 41.5202 49.4263 41.6267 48.4401 42.2451C47.8402 42.63 47.3022 43.1012 46.844 43.6431C46.1976 44.3537 45.8104 45.2568 45.744 46.2091C46.989 46.147 48.2047 45.814 49.3038 45.2339Z" fill="#28303F"/>
<path fill-rule="evenodd" clip-rule="evenodd" d="M22.3017 44.0716C21.7881 42.5183 22.2754 36.0805 23.7256 33.0083C27.0958 34.8666 30.0224 37.1074 32.1058 40.2717C34.5772 44.0256 35.9515 48.9014 37.1508 53.921C33.3284 53.6621 23.4951 47.3768 22.3017 44.0716Z" fill="white"/>
<path fill-rule="evenodd" clip-rule="evenodd" d="M26.8535 43.0505C26.8004 43.0505 26.7493 43.0709 26.7111 43.1074C26.673 43.1439 26.6508 43.1937 26.6493 43.2461C26.6552 43.2976 26.6815 43.3446 26.7225 43.377C26.7635 43.4094 26.8159 43.4243 26.8681 43.4187C26.9213 43.4187 26.9724 43.3983 27.0105 43.3618C27.0487 43.3252 27.0709 43.2755 27.0724 43.2231C27.0665 43.1716 27.0402 43.1245 26.9992 43.0922C26.9581 43.0598 26.9058 43.0448 26.8535 43.0505Z" fill="white"/>
<path fill-rule="evenodd" clip-rule="evenodd" d="M27.6939 41.293C27.5872 41.49 27.5068 41.6998 27.4547 41.9172C27.4004 42.1425 27.373 42.3732 27.373 42.6047C27.3645 43.1741 27.5403 43.7313 27.8749 44.1955C28.0142 44.3975 28.1999 44.5642 28.4169 44.6822C28.6339 44.8001 28.8761 44.866 29.1237 44.8743C29.3315 44.8704 29.5362 44.8241 29.725 44.7385C29.9138 44.6528 30.0826 44.5297 30.2208 44.3767C30.5425 44.0264 30.7543 43.5918 30.8307 43.1254V43.0592L29.042 41.5375L27.729 41.2153L27.6852 41.293H27.6939ZM27.6939 41.9719C27.7365 41.8025 27.7961 41.6377 27.8719 41.48L28.9457 41.7475L30.5885 43.1484C30.5167 43.5451 30.3349 43.9145 30.0633 44.2156C29.9458 44.3454 29.8026 44.4502 29.6425 44.5234C29.4825 44.5966 29.3089 44.6368 29.1325 44.6413C28.9222 44.6336 28.7167 44.5776 28.5323 44.4777C28.3479 44.3778 28.1897 44.2368 28.0703 44.066C27.7676 43.6464 27.6081 43.1426 27.6152 42.6277C27.6103 42.4074 27.6319 42.1872 27.6794 41.9719H27.6939Z" fill="#28303F"/>
<path fill-rule="evenodd" clip-rule="evenodd" d="M29.077 42.3457C29.6401 42.7944 29.6168 43.8962 28.9953 44.2586C28.3417 43.8847 28.4088 42.5931 29.077 42.3457Z" fill="#28303F"/>
<path fill-rule="evenodd" clip-rule="evenodd" d="M29.1499 42.944C29.0968 42.944 29.0457 42.9644 29.0075 43.001C28.9694 43.0375 28.9472 43.0872 28.9457 43.1396C28.9515 43.1911 28.9779 43.2382 29.0189 43.2706C29.0599 43.3029 29.1123 43.3179 29.1645 43.3122C29.2177 43.3123 29.2688 43.2918 29.3069 43.2553C29.3451 43.2188 29.3673 43.169 29.3688 43.1166C29.3629 43.0652 29.3366 43.0181 29.2955 42.9857C29.2545 42.9534 29.2022 42.9384 29.1499 42.944Z" fill="white"/>
<path fill-rule="evenodd" clip-rule="evenodd" d="M31.8782 46.2062C31.8782 44.1926 31.353 42.2336 29.4242 41.1319C27.9478 40.4904 26.5968 40.9536 25.8469 40.1567C25.9581 40.3858 26.0555 40.6211 26.1387 40.8615C26.3201 41.3488 26.3966 41.868 26.3634 42.3861C26.3235 42.8273 26.3471 43.2718 26.4334 43.7064C26.6989 44.6212 27.3671 45.0268 28.1841 45.3864C29.4009 45.9243 30.5185 46.2982 31.884 46.2062H31.8782ZM28.2192 45.2339C27.5247 44.8743 26.9907 44.5406 26.6377 43.8215C26.1562 42.8406 26.5793 41.8913 26.591 41.1981C27.2796 41.5202 28.0966 41.6267 29.0829 42.2451C29.6827 42.63 30.2207 43.1012 30.6789 43.6431C31.3254 44.3537 31.7125 45.2568 31.779 46.2091C30.5339 46.1473 29.3181 45.8143 28.2192 45.2339Z" fill="#28303F"/>
<path fill-rule="evenodd" clip-rule="evenodd" d="M38.7002 54.5253C37.6381 54.4361 36.0741 53.7112 36.007 52.9547C36.5147 52.2298 37.2937 51.8041 38.7002 51.7695C40.1066 51.8098 40.8827 52.2298 41.3934 52.9547C41.3379 53.7112 39.7623 54.4361 38.7002 54.5253Z" fill="#1D1D1B"/>
<path fill-rule="evenodd" clip-rule="evenodd" d="M36.6924 77.1498L36.5581 77.843C36.9783 78.1681 36.9112 77.7855 37.0717 78.2831C37.1738 78.5996 37.0717 80.9411 37.0542 81.4186C37.0542 82.0572 37.1096 82.7878 37.0542 83.4092C36.9608 84.7065 36.4006 83.3747 36.4006 84.9597C38.0112 84.8072 39.8612 85.2272 41.4193 84.649C43.599 83.8407 44.0162 78.8383 41.5973 77.377C40.6082 76.7758 37.9762 76.9168 36.6807 77.1498H36.6924ZM38.7349 84.0018C38.8603 83.553 38.9304 78.8642 39.0413 77.8977C39.8116 77.8631 40.7482 78.1853 40.9875 78.7204C41.7753 80.4492 41.5623 84.6375 38.7349 83.996V84.0018Z" fill="#28303F"/>
<path fill-rule="evenodd" clip-rule="evenodd" d="M20.2413 81.5252L18.7123 77.1614C17.9327 76.9671 17.1185 76.9504 16.3314 77.1125C15.9287 78.1999 16.5006 77.4664 16.5852 78.4674L16.4276 83.8322C16.1359 84.2234 15.8791 84.0796 16.0308 84.8448C16.6156 84.9591 17.2133 84.9949 17.8078 84.9512C18.6832 84.9368 18.8699 85.1324 18.8057 84.2033C18.5857 84.0865 18.3499 84.0013 18.1054 83.9502L18.1871 78.2229C18.5227 78.7321 19.8824 83.6395 20.4864 84.4219C21.2917 84.4622 21.1371 84.4708 21.2918 83.697C21.402 83.2682 21.5444 82.848 21.7178 82.44C22.0095 81.577 22.3013 80.8981 22.5931 80.015C22.7478 80.3027 22.6369 82.0286 22.6165 82.3623C22.4852 84.6636 22.6923 83.7114 21.8958 84.1659C21.8082 84.8419 21.7557 84.8649 22.4793 84.9023C22.9653 84.9695 23.4597 84.949 23.9383 84.8419C24.125 83.8667 23.9383 84.3126 23.4772 83.9387C23.3284 82.4313 23.5356 79.503 23.6582 77.918C24.2067 77.7224 24.4256 77.8087 24.1542 76.9486C21.3238 76.7328 21.9629 77.2966 21.5106 78.4645C21.1838 79.3304 20.8599 81.0247 20.2413 81.5252Z" fill="#28303F"/>
<path fill-rule="evenodd" clip-rule="evenodd" d="M66.055 84.7984L67.7503 84.8789L67.7678 84.2518L67.476 84.0965C67.158 83.8635 67.2222 83.619 67.2222 82.7963L69.1421 82.7704L69.6469 83.921C69.1917 84.2087 69.0137 84.0361 69.1684 84.7552H71.917V84.1425C71.2926 83.7829 71.3335 84.2317 71.0621 83.501C70.8929 83.0322 70.7149 82.8193 70.6273 82.3303C71.2722 81.9822 71.5727 81.637 71.7069 80.7884C71.812 80.1268 71.8908 79.0452 71.6048 78.4555C71.2979 77.8935 70.8148 77.4444 70.2276 77.1754C70.1517 77.1409 65.06 76.3959 66.1892 77.7997C66.7903 78.5447 66.4577 78.0873 66.4402 80.1527C66.4402 80.5784 66.4927 83.6477 66.338 83.8923C66.1338 84.2288 65.6932 84.0648 66.0463 84.784L66.055 84.7984ZM67.2659 81.893C67.1142 81.1595 67.3068 78.7288 67.3564 77.8371C69.5448 77.6271 69.8103 78.2311 69.8132 79.9485C69.8132 82.0627 69.3405 81.9822 67.2659 81.893Z" fill="#28303F"/>
<path fill-rule="evenodd" clip-rule="evenodd" d="M4.85827 77.6388C5.31055 77.9811 5.38933 77.5554 5.37474 79.5287C5.37474 80.1932 5.46228 81.4704 5.2376 81.9796C4.74448 82.1809 2.99083 82.0314 2.37224 81.9623L2.52105 77.797C2.77782 77.5094 2.73406 77.5094 2.68153 77.006C1.83827 77.006 0.887036 76.9657 0.177991 77.1671L0.0408504 77.8431C0.854939 78.0933 0.732388 77.8891 0.726553 80.5816C0.726553 81.223 0.568987 81.574 0.618591 82.2586C0.70287 82.8477 0.712671 83.4449 0.64777 84.0363L0.0262609 84.2319L0 84.9453C0.70321 84.9453 2.57357 84.9885 3.05502 84.8303L3.0842 84.255L2.46269 83.9961L2.44227 82.8052L5.36015 82.9058L5.32514 84.1629L4.63068 84.2924C4.52272 85.443 5.10046 84.8504 6.25302 84.9137C6.6732 84.9367 6.5915 84.9827 6.92122 84.7929L6.71697 84.2751L6.64402 84.2434C6.52118 84.1987 6.40603 84.1357 6.30263 84.0565C6.24427 83.1302 6.34931 78.5622 6.5594 77.9179C7.02918 77.5583 7.11671 77.8747 7.05544 77.0089C4.86119 77.1728 4.77657 76.6033 4.85827 77.6388Z" fill="#28303F"/>
<path fill-rule="evenodd" clip-rule="evenodd" d="M60.8612 76.986C59.9654 77.1989 59.6503 77.3168 59.3264 78.1367C59.0025 78.9565 58.7837 82.0603 59.802 82.7392C60.4323 83.1649 63.2014 83.6712 63.6741 81.8935C63.8789 81.0507 63.9235 80.1777 63.8054 79.3189C63.5136 77.6706 62.7578 76.5171 60.8612 76.9688V76.986ZM61.0713 82.138C60.7649 81.4706 60.9196 80.5559 60.9458 79.7389C60.9925 78.2747 60.9458 77.8663 61.7774 77.8749C62.2851 78.5768 62.1538 79.3678 62.2122 80.3689C62.2735 81.4706 62.4719 82.3825 61.0713 82.138Z" fill="#28303F"/>
<path fill-rule="evenodd" clip-rule="evenodd" d="M11.0325 76.9943C10.1105 77.2216 9.78365 77.3942 9.50062 78.2686C9.24968 79.0396 8.9754 82.1261 10.0463 82.7676C10.6765 83.1444 11.6336 83.2307 12.4681 83.0898C13.3026 82.9488 13.7286 82.6008 13.927 81.7896C14.2451 80.4433 14.1225 78.3204 13.1917 77.3625C12.7774 76.9339 11.6832 76.839 11.0413 76.9943H11.0325ZM11.2864 82.1721C11.0208 81.5968 10.8895 76.8045 12.0946 78.0241C12.471 78.4067 12.3864 79.914 12.4331 80.5152C12.5119 81.6946 12.6052 82.2699 11.2864 82.1606V82.1721Z" fill="#28303F"/>
<path fill-rule="evenodd" clip-rule="evenodd" d="M30.7662 81.2085C30.7662 80.4951 30.8362 80.4261 30.0571 80.4548C29.5682 80.4716 29.0808 80.5196 28.5982 80.5987C28.4902 81.617 28.7441 80.9611 28.8725 81.5537C29.0388 82.3016 27.8249 82.6439 27.7053 81.6314C27.6723 81.1799 27.6801 80.7265 27.7287 80.2765C28.7441 80.078 30.0075 80.2103 30.6465 79.9888L30.7312 79.9514C30.9529 78.3175 30.5211 77.0346 28.8754 76.8994C27.1567 76.7584 26.3689 77.7624 26.2318 79.3128C26.1063 80.7511 25.9021 82.595 27.6061 82.9834C28.5807 83.2048 30.0951 83.294 30.2147 82.0283C30.2906 81.2258 30.2147 81.5968 30.7574 81.2028L30.7662 81.2085ZM27.8483 79.3991C27.838 79.0105 27.8872 78.6226 27.9942 78.2485C28.1372 77.8228 28.2655 77.7969 28.7849 77.7681V79.4423L27.8483 79.3991Z" fill="#28303F"/>
<path fill-rule="evenodd" clip-rule="evenodd" d="M49.6507 81.4908L50.1642 81.2261L50.1292 80.5444C49.6769 80.4005 48.4456 80.4955 47.9875 80.6105C47.8824 81.7612 48.6323 80.9758 48.1479 82.1495C47.7103 82.2904 47.2522 82.3278 47.1296 81.8158C47.0565 81.3246 47.0565 80.8256 47.1296 80.3344L50.1292 80.0208C50.2051 78.4013 50.0679 77.1788 48.4456 76.9285C46.7678 76.6725 45.907 77.5786 45.6619 78.9709C45.5641 79.7503 45.5367 80.5368 45.5802 81.321C45.6998 82.906 47.2171 83.303 48.6236 83.0297C49.6448 82.8312 49.5339 82.5033 49.639 81.4936L49.6507 81.4908ZM47.2405 79.3937C47.2399 79.0053 47.2909 78.6185 47.3922 78.2431C47.5381 77.803 47.6548 77.7857 48.1859 77.7598V79.434L47.2405 79.3937Z" fill="#28303F"/>
<path fill-rule="evenodd" clip-rule="evenodd" d="M53.1317 83.4208C53.1813 82.6959 52.9362 82.4801 52.98 81.551C53.0471 80.2307 52.7903 78.2257 54.223 77.846C54.357 77.8107 54.4958 77.7961 54.6344 77.8028C55.1917 77.8949 55.1392 78.3551 55.1509 79.198L54.5907 79.4051C54.5527 80.2853 54.3689 80.0897 57.1205 80.0552C57.2255 79.1318 57.1642 79.4569 56.7032 79.1174C56.7032 77.9668 56.8433 77.1642 55.6411 77.0146C52.2505 76.5947 52.0433 79.687 52.2126 82.2759C52.2505 82.8742 52.4752 84.0392 52.8749 84.4448C53.6453 85.2186 55.4864 85.0806 56.1721 84.3902C56.6857 83.8753 56.4902 83.2079 56.5223 82.3938C56.9746 82.0199 56.922 82.3938 56.8987 81.4388C56.1576 81.4388 55.1042 81.2921 54.5265 81.6373C54.4623 82.7879 54.7103 81.925 54.8182 82.5952C54.9671 83.4438 54.8474 84.2838 53.7299 84.1025C53.2689 84.0191 53.2222 83.7947 53.1317 83.4208Z" fill="#28303F"/>
<path fill-rule="evenodd" clip-rule="evenodd" d="M26.2347 84.8821C26.7628 85.1007 29.6486 84.7958 30.6115 84.7872V83.4956C29.6661 83.4956 28.6595 83.5733 27.6936 83.579C26.4681 83.5876 25.8554 83.2367 26.2347 84.8821Z" fill="#28303F"/>
<path fill-rule="evenodd" clip-rule="evenodd" d="M45.6357 83.6193C45.5248 84.0331 45.5248 84.4683 45.6357 84.8821C46.1259 85.0921 49.0671 84.7958 50.0125 84.7872V83.4956L45.6357 83.6193Z" fill="#28303F"/>
<path fill-rule="evenodd" clip-rule="evenodd" d="M13.8103 84.8304C13.8385 84.64 13.8482 84.4473 13.8395 84.2551C13.8045 83.7977 13.8745 83.9674 13.679 83.8035C13.361 83.4698 10.2593 83.6798 9.57939 83.7114C8.88493 85.0663 9.80407 84.9599 10.8808 84.9397C11.6219 84.9196 13.1917 85.0404 13.8103 84.8304Z" fill="#28303F"/>
<path fill-rule="evenodd" clip-rule="evenodd" d="M59.2709 83.7513C59.2272 84.2115 59.1338 84.4043 59.2709 84.853C59.8837 85.0055 62.9445 84.9882 63.5952 84.853V83.7455C62.9183 83.5787 59.9741 83.596 59.2709 83.7513Z" fill="#28303F"/>
<path fill-rule="evenodd" clip-rule="evenodd" d="M72.7223 76.9944V74.791H71.9229V74.3422H74.0617V74.791H73.268V76.9973L72.7223 76.9944ZM74.406 76.9944V74.3394H75.223L75.7044 76.1516L76.183 74.3394H77V76.9944H76.4981V74.9032L75.967 76.9944H75.4418L74.9137 74.9032V76.9944H74.406Z" fill="#28303F"/>
</g>
<defs>
<clipPath id="clip0_106_288">
<rect width="77" height="85" fill="white"/>
</clipPath>
</defs>
</svg>
