<svg width="24" height="24" viewBox="0 0 24 24" fill="none" xmlns="http://www.w3.org/2000/svg">
<path d="M14.4167 2.51157C13.7667 2.45858 13.1514 2.58726 12.5489 2.90581C11.7414 3.32655 11.1685 3.97627 10.9075 4.8209V4.87641L10.8772 5.07763L10.7641 4.87641L10.476 4.37114C10.0163 3.66781 9.44411 3.24392 8.72465 3.04711C8.09456 2.90833 7.5757 2.96447 7.02983 3.25085C6.42739 3.61482 6.08276 4.18001 5.93874 4.96913C5.79472 5.78664 5.93874 6.57576 6.37081 7.36362L6.57141 7.64622L5.87766 7.42355C5.01675 7.22232 4.21371 7.33461 3.40616 7.7585C2.57611 8.17924 2.05661 8.77029 1.71584 9.59221C1.39758 10.3801 1.4278 11.1433 1.82964 11.8454C2.00003 12.1583 2.26171 12.4074 2.48867 12.579C2.83393 12.9171 3.26535 13.1139 3.78164 13.1997L3.98224 13.2521L3.5534 13.6236C3.14898 13.9586 2.92073 14.3825 2.77671 14.8026C2.63269 15.3122 2.68991 15.8175 2.97731 16.2969C3.12455 16.524 3.26535 16.7208 3.4936 16.8621C3.72506 17.0595 4.01311 17.2008 4.35773 17.2305C4.99039 17.3718 5.6507 17.3718 6.36695 17.1447L5.85066 17.9893L5.70664 18.3577C5.4186 19.261 5.50604 20.0457 5.9381 20.8638C6.1387 21.1761 6.36695 21.4587 6.59713 21.7116C6.93918 22.0201 7.37381 22.2169 7.89331 22.3582C8.75423 22.5853 9.61449 22.5594 10.4445 22.1355C11.2521 21.7116 11.7671 21.031 12.0288 20.187L12.0551 20.0198C12.601 20.6109 13.1173 21.0058 13.6927 21.1471C14.2688 21.318 14.8417 21.2915 15.3612 20.9503C15.8498 20.6708 16.1945 20.1876 16.3693 19.596C16.5134 18.9753 16.5134 18.3577 16.3693 17.6512C16.6542 17.848 16.9422 17.9893 17.2868 18.0751C18.2075 18.3577 19.0119 18.3281 19.8149 17.9079C20.5916 17.4841 21.1079 16.8072 21.3689 15.9329C21.5959 15.0883 21.5393 14.2702 21.1111 13.4785L20.9639 13.2514C20.7356 12.9133 20.5054 12.5752 20.1595 12.3513C19.8721 12.1545 19.5269 12.0132 19.2125 11.8719C20.103 11.448 20.7356 10.857 21.0204 10.0937C21.2255 9.47299 21.1677 8.96773 20.8764 8.45805V8.40254C20.5318 7.8405 20.0766 7.47212 19.3565 7.27531C18.9244 7.19268 18.439 7.18952 18.0069 7.21917L17.0554 7.41661L17.3736 6.71327C17.6617 5.80998 17.5749 4.93633 17.0862 4.11756L17.002 3.97311C16.5699 3.26978 15.9373 2.84589 15.0764 2.62322C14.852 2.56708 14.6347 2.52734 14.4167 2.51157ZM13.9281 3.70124C14.2058 3.67538 14.4836 3.71133 14.7587 3.80974C15.3612 3.95103 15.7933 4.25949 16.0504 4.73889V4.74205C16.1945 5.02149 16.2787 5.36022 16.2787 5.72798L16.1945 6.34868C16.0813 6.65713 15.9373 6.93973 15.763 7.19331L13.1777 10.2949C12.9199 10.0975 12.6319 9.95618 12.3438 9.81488L12.0558 6.62812L12.0294 5.50215L12.0558 5.21956C12.1998 4.65752 12.6016 4.23363 13.1179 3.95103C13.3783 3.80974 13.6503 3.7271 13.9281 3.70124ZM8.02769 4.15415C8.14149 4.14721 8.26494 4.17686 8.37938 4.233C8.89567 4.3743 9.32774 4.73826 9.67236 5.44475C9.81638 5.72735 9.9604 6.00679 10.017 6.34489L10.5931 9.67295L10.161 9.81425L7.6027 7.08103L7.45868 6.79843C7.22786 6.29317 7.08641 5.81376 7.14428 5.30408C7.17064 4.79882 7.37252 4.45945 7.71715 4.26265C7.80394 4.19389 7.91067 4.1573 8.02512 4.15415H8.02769ZM18.4255 8.38551C18.556 8.38551 18.6801 8.39245 18.8106 8.40569C19.2999 8.46435 19.6445 8.68829 19.8156 9.02955L19.9332 9.39036L19.876 9.67295C19.6754 10.1826 19.2433 10.5769 18.5232 10.886C18.2384 11.0273 17.9208 11.0828 17.5794 11.1389L14.0431 11.5628L13.9859 11.3654L13.9293 11.2802L14.0431 11.1389L16.9461 8.76966L17.2913 8.63152V8.62836C17.6765 8.4612 18.0519 8.38866 18.43 8.38551H18.4255ZM5.17106 8.54068C5.30801 8.54762 5.44881 8.56654 5.59284 8.60313V8.60628L6.37016 8.91159L8.89825 10.7188C8.66678 11.0014 8.52598 11.2834 8.43982 11.5634L4.29986 12.0725L4.01503 12.017C3.49617 11.9312 3.15155 11.7041 2.92009 11.2834C2.68927 10.8601 2.69184 10.44 2.86351 10.0161C3.06411 9.48056 3.43959 9.05667 3.9816 8.83021C4.37059 8.62016 4.75957 8.51734 5.17106 8.54068ZM11.3093 10.8002C11.8288 10.8002 12.3175 11.0014 12.6319 11.3099C13.0376 11.7035 13.2079 12.1274 13.2079 12.637C13.2079 13.1423 13.0376 13.623 12.6319 13.9573C12.2609 14.3257 11.8288 14.5225 11.3093 14.5225C10.7667 14.5225 10.3082 14.3257 9.96362 13.9573C9.58813 13.6223 9.38753 13.1423 9.38753 12.637C9.38753 12.1274 9.58813 11.7035 9.96362 11.3099C10.3082 10.9976 10.7667 10.8002 11.3132 10.8002H11.3093ZM18.5226 12.972L18.8106 13.0016C19.2427 13.1429 19.6484 13.3959 19.8753 13.8166C20.1634 14.1289 20.3074 14.5528 20.3074 15.0328L20.2206 15.5948C20.0766 16.1594 19.7313 16.5795 19.2427 16.8066C18.7277 17.0892 18.2082 17.1447 17.6353 16.9479C17.2907 16.8653 17.0592 16.724 16.8586 16.4981L13.8413 14.0437L14.0425 13.623L14.1293 13.2817L17.3775 13.0016L18.5264 12.972H18.5226ZM12.8363 15.0328L14.0425 16.2414L14.789 17.1447L14.933 17.4273C15.1908 17.9073 15.3348 18.3577 15.2744 18.8926C15.221 19.3991 15.0474 19.7663 14.7015 19.9076C14.5009 20.0489 14.2695 20.0489 14.0425 20.0192C13.4966 19.8811 13.0646 19.4572 12.7495 18.781L12.4049 17.8505L11.9728 15.3961L12.4583 15.229L12.8337 15.0322L12.8363 15.0328ZM9.73215 15.0883C10.017 15.2296 10.305 15.3709 10.6226 15.3968C10.6799 16.3562 10.7641 17.3718 10.9075 18.4681V19.5985L10.8811 19.8779C10.6773 20.3876 10.3327 20.8115 9.81638 21.0342C9.30138 21.3168 8.75487 21.3729 8.23536 21.2316C7.65928 21.0935 7.23043 20.7516 7.00026 20.3012C6.85623 20.0186 6.73857 19.6805 6.73857 19.3424L6.88581 18.6945C6.94303 18.412 7.08641 18.1325 7.31787 17.9067L9.73215 15.0883Z" fill="black"/>
</svg>
