<svg width="24" height="24" viewBox="0 0 24 24" fill="none" xmlns="http://www.w3.org/2000/svg">
<path d="M13 3H11C6.02944 3 2 7.02944 2 12V17C2 19.2091 3.79086 21 6 21H13C17.9706 21 22 16.9706 22 12C22 7.02944 17.9706 3 13 3Z" stroke="#28303F" stroke-width="1.5" stroke-linejoin="round"/>
<path d="M6.648 14H7.568V10.4H6.648V14ZM6.552 9.104C6.552 9.472 6.816 9.68 7.128 9.68C7.392 9.68 7.656 9.472 7.656 9.104C7.656 8.776 7.392 8.568 7.128 8.568C6.816 8.568 6.552 8.776 6.552 9.104ZM14.1948 11.648C14.1948 10.664 13.6988 10.336 13.0428 10.336C12.4828 10.336 12.0828 10.576 11.8268 10.912C11.6988 10.584 11.3308 10.336 10.7788 10.336C10.3307 10.336 9.90675 10.512 9.65075 10.8V10.4H8.73075V14H9.65075V11.584C9.81075 11.344 10.0748 11.2 10.4028 11.2C10.7948 11.2 11.0028 11.448 11.0028 11.824V14H11.9228V11.88C11.9228 11.8 11.9148 11.672 11.9148 11.616C12.0428 11.368 12.3148 11.2 12.6588 11.2C13.0908 11.2 13.2748 11.44 13.2748 11.888V14H14.1948V11.648ZM14.9052 12.2C14.9052 13.28 15.6732 14.088 16.8652 14.088C18.0572 14.088 18.8252 13.28 18.8252 12.2C18.8252 11.12 18.0572 10.312 16.8652 10.312C15.6732 10.312 14.9052 11.12 14.9052 12.2ZM15.8892 12.2C15.8892 11.576 16.3212 11.176 16.8652 11.176C17.4252 11.176 17.8492 11.592 17.8492 12.2C17.8492 12.824 17.4332 13.232 16.8652 13.232C16.3052 13.232 15.8892 12.8 15.8892 12.2Z" fill="#28303F"/>
</svg>
