<svg width="24" height="25" viewBox="0 0 24 25" fill="none" xmlns="http://www.w3.org/2000/svg">
<path fill-rule="evenodd" clip-rule="evenodd" d="M7 2.5C4.23858 2.5 2 4.73858 2 7.5V17.5C2 20.2614 4.23858 22.5 7 22.5H17C19.7614 22.5 22 20.2614 22 17.5V7.5C22 4.73858 19.7614 2.5 17 2.5H7ZM18 7.5C18.5523 7.5 19 7.05228 19 6.5C19 5.94772 18.5523 5.5 18 5.5C17.4477 5.5 17 5.94772 17 6.5C17 7.05228 17.4477 7.5 18 7.5ZM17 12.5C17 15.2614 14.7614 17.5 12 17.5C9.23858 17.5 7 15.2614 7 12.5C7 9.73858 9.23858 7.5 12 7.5C14.7614 7.5 17 9.73858 17 12.5ZM12 15.5C13.6569 15.5 15 14.1569 15 12.5C15 10.8431 13.6569 9.5 12 9.5C10.3431 9.5 9 10.8431 9 12.5C9 14.1569 10.3431 15.5 12 15.5Z" fill="#28303F"/>
</svg>
