<svg width="24" height="25" viewBox="0 0 24 25" fill="none" xmlns="http://www.w3.org/2000/svg">
<path d="M15 16.5L14.8529 17.2354C15.1846 17.3018 15.5196 17.1379 15.6708 16.8354L15 16.5ZM8 9.5L7.66459 8.82918C7.36208 8.98043 7.19824 9.31544 7.26456 9.64709L8 9.5ZM8.35402 9.32299L8.68943 9.99381L8.68943 9.99381L8.35402 9.32299ZM9.31654 6.79136L10.0129 6.51281L9.31654 6.79136ZM8.50289 4.75722L7.80653 5.03576L8.50289 4.75722ZM19.7428 15.9971L19.4642 16.6935L19.7428 15.9971ZM17.7086 15.1835L17.9872 14.4871H17.9872L17.7086 15.1835ZM15.177 16.146L15.8478 16.4814V16.4814L15.177 16.146ZM16.25 11.5C16.25 11.9142 16.5858 12.25 17 12.25C17.4142 12.25 17.75 11.9142 17.75 11.5H16.25ZM16.6955 9.96927L17.3884 9.68225L16.6955 9.96927ZM14.5307 7.80448L14.8177 7.11157L14.5307 7.80448ZM13 6.75C12.5858 6.75 12.25 7.08579 12.25 7.5C12.25 7.91421 12.5858 8.25 13 8.25V6.75ZM20.25 11.5C20.25 11.9142 20.5858 12.25 21 12.25C21.4142 12.25 21.75 11.9142 21.75 11.5H20.25ZM20.391 8.43853L21.0839 8.15152L20.391 8.43853ZM16.0615 4.10896L16.3485 3.41605V3.41605L16.0615 4.10896ZM13 2.75C12.5858 2.75 12.25 3.08579 12.25 3.5C12.25 3.91421 12.5858 4.25 13 4.25V2.75ZM20.25 17.8541V19.5H21.75V17.8541H20.25ZM5 4.25H6.64593V2.75H5V4.25ZM15 16.5C15.1471 15.7646 15.1473 15.7646 15.1475 15.7646C15.1476 15.7647 15.1477 15.7647 15.1479 15.7647C15.1481 15.7648 15.1483 15.7648 15.1484 15.7648C15.1487 15.7649 15.1488 15.7649 15.1488 15.7649C15.1488 15.7649 15.1482 15.7648 15.147 15.7645C15.1447 15.764 15.14 15.7631 15.1331 15.7615C15.1193 15.7585 15.0967 15.7533 15.0659 15.7459C15.0044 15.7309 14.9104 15.7066 14.7898 15.6711C14.5482 15.6 14.2016 15.4847 13.7954 15.3106C12.9796 14.961 11.9439 14.3833 11.0303 13.4697L9.96967 14.5303C11.0561 15.6167 12.2704 16.289 13.2046 16.6894C13.6734 16.8903 14.0768 17.025 14.3665 17.1101C14.5115 17.1528 14.6285 17.1832 14.7114 17.2034C14.7529 17.2135 14.7859 17.221 14.8097 17.2263C14.8217 17.2289 14.8313 17.2309 14.8385 17.2325C14.8421 17.2332 14.8451 17.2339 14.8475 17.2343C14.8487 17.2346 14.8498 17.2348 14.8507 17.235C14.8511 17.2351 14.8515 17.2352 14.8519 17.2352C14.8521 17.2353 14.8523 17.2353 14.8524 17.2353C14.8527 17.2354 14.8529 17.2354 15 16.5ZM11.0303 13.4697C10.1167 12.5561 9.53901 11.5204 9.18936 10.7046C9.01527 10.2984 8.89996 9.95184 8.8289 9.71025C8.79342 9.58962 8.76912 9.49565 8.75414 9.43406C8.74666 9.40329 8.74151 9.38065 8.73847 9.36687C8.73695 9.35999 8.73595 9.35532 8.73546 9.35296C8.73521 9.35178 8.73509 9.35118 8.73508 9.35117C8.73508 9.35116 8.73511 9.3513 8.73517 9.35159C8.7352 9.35174 8.73524 9.35192 8.73528 9.35214C8.7353 9.35225 8.73534 9.35244 8.73535 9.3525C8.73539 9.3527 8.73544 9.35291 8 9.5C7.26456 9.64709 7.26461 9.64732 7.26466 9.64756C7.26468 9.64765 7.26473 9.6479 7.26477 9.64809C7.26484 9.64846 7.26492 9.64887 7.26501 9.64932C7.2652 9.65022 7.26541 9.65127 7.26566 9.65247C7.26615 9.65488 7.26677 9.65789 7.26753 9.6615C7.26905 9.66873 7.27111 9.67834 7.27374 9.69026C7.279 9.71408 7.28655 9.7471 7.29664 9.78859C7.31682 9.87154 7.34721 9.98851 7.38985 10.1335C7.47504 10.4232 7.60973 10.8266 7.81064 11.2954C8.21099 12.2296 8.88325 13.4439 9.96967 14.5303L11.0303 13.4697ZM8.33541 10.1708L8.68943 9.99381L8.01861 8.65217L7.66459 8.82918L8.33541 10.1708ZM10.0129 6.51281L9.19925 4.47868L7.80653 5.03576L8.62018 7.0699L10.0129 6.51281ZM20.0213 15.3008L17.9872 14.4871L17.4301 15.8798L19.4642 16.6935L20.0213 15.3008ZM14.5062 15.8106L14.3292 16.1646L15.6708 16.8354L15.8478 16.4814L14.5062 15.8106ZM17.9872 14.4871C16.6592 13.9559 15.1458 14.5313 14.5062 15.8106L15.8478 16.4814C16.1386 15.8999 16.8265 15.6384 17.4301 15.8798L17.9872 14.4871ZM8.68943 9.99381C9.96868 9.35419 10.5441 7.84076 10.0129 6.51281L8.62018 7.0699C8.86163 7.67351 8.60008 8.36143 8.01861 8.65217L8.68943 9.99381ZM6.64593 4.25C7.15706 4.25 7.6167 4.56119 7.80653 5.03576L9.19925 4.47868C8.78162 3.43462 7.77042 2.75 6.64593 2.75V4.25ZM21.75 17.8541C21.75 16.7296 21.0654 15.7184 20.0213 15.3008L19.4642 16.6935C19.9388 16.8833 20.25 17.3429 20.25 17.8541H21.75ZM19 20.75C10.5777 20.75 3.75 13.9223 3.75 5.5H2.25C2.25 14.7508 9.74923 22.25 19 22.25V20.75ZM19 22.25C20.5188 22.25 21.75 21.0188 21.75 19.5H20.25C20.25 20.1904 19.6904 20.75 19 20.75V22.25ZM3.75 5.5C3.75 4.80964 4.30964 4.25 5 4.25V2.75C3.48122 2.75 2.25 3.98122 2.25 5.5H3.75ZM17.75 11.5C17.75 10.8762 17.6271 10.2586 17.3884 9.68225L16.0026 10.2563C16.1659 10.6506 16.25 11.0732 16.25 11.5H17.75ZM17.3884 9.68225C17.1497 9.10596 16.7998 8.58232 16.3588 8.14124L15.2981 9.2019C15.5999 9.50369 15.8393 9.86197 16.0026 10.2563L17.3884 9.68225ZM16.3588 8.14124C15.9177 7.70016 15.394 7.35028 14.8177 7.11157L14.2437 8.49739C14.638 8.66072 14.9963 8.90011 15.2981 9.2019L16.3588 8.14124ZM14.8177 7.11157C14.2415 6.87286 13.6238 6.75 13 6.75V8.25C13.4268 8.25 13.8494 8.33406 14.2437 8.49739L14.8177 7.11157ZM21.75 11.5C21.75 10.3509 21.5237 9.21312 21.0839 8.15152L19.6981 8.72554C20.0625 9.60516 20.25 10.5479 20.25 11.5H21.75ZM21.0839 8.15152C20.6442 7.08992 19.9997 6.12533 19.1872 5.31282L18.1265 6.37348C18.7997 7.0467 19.3338 7.84593 19.6981 8.72554L21.0839 8.15152ZM19.1872 5.31282C18.3747 4.5003 17.4101 3.85578 16.3485 3.41605L15.7745 4.80187C16.6541 5.16622 17.4533 5.70025 18.1265 6.37348L19.1872 5.31282ZM16.3485 3.41605C15.2869 2.97633 14.1491 2.75 13 2.75V4.25C13.9521 4.25 14.8948 4.43753 15.7745 4.80187L16.3485 3.41605Z" fill="#28303F"/>
</svg>
